<mxfile host="app.diagrams.net" agent="Mozilla/5.0 (Windows NT 10.0; Win64; x64) AppleWebKit/537.36 (KHTML, like Gecko) Chrome/131.0.0.0 Safari/537.36" version="25.0.1">
  <diagram name="Page-1" id="IONrJOrp5XjKqfsEHkqD">
    <mxGraphModel dx="1615" dy="875" grid="1" gridSize="10" guides="1" tooltips="1" connect="1" arrows="1" fold="1" page="1" pageScale="1" pageWidth="850" pageHeight="1100" math="0" shadow="0">
      <root>
        <mxCell id="0" />
        <mxCell id="1" parent="0" />
        <mxCell id="Z1hWmm2dF4A6RRwR6TOS-2" style="edgeStyle=orthogonalEdgeStyle;rounded=0;orthogonalLoop=1;jettySize=auto;html=1;exitX=0.5;exitY=1;exitDx=0;exitDy=0;opacity=60;" edge="1" parent="1" source="Z1hWmm2dF4A6RRwR6TOS-1">
          <mxGeometry relative="1" as="geometry">
            <mxPoint x="425" y="160" as="targetPoint" />
          </mxGeometry>
        </mxCell>
        <mxCell id="Z1hWmm2dF4A6RRwR6TOS-1" value="Start" style="ellipse;whiteSpace=wrap;html=1;opacity=60;" vertex="1" parent="1">
          <mxGeometry x="365" y="10" width="120" height="80" as="geometry" />
        </mxCell>
        <mxCell id="Z1hWmm2dF4A6RRwR6TOS-4" style="edgeStyle=orthogonalEdgeStyle;rounded=0;orthogonalLoop=1;jettySize=auto;html=1;exitX=0.5;exitY=1;exitDx=0;exitDy=0;opacity=60;" edge="1" parent="1" source="Z1hWmm2dF4A6RRwR6TOS-3">
          <mxGeometry relative="1" as="geometry">
            <mxPoint x="425" y="300" as="targetPoint" />
          </mxGeometry>
        </mxCell>
        <mxCell id="Z1hWmm2dF4A6RRwR6TOS-9" style="edgeStyle=orthogonalEdgeStyle;rounded=0;orthogonalLoop=1;jettySize=auto;html=1;exitX=1;exitY=0.5;exitDx=0;exitDy=0;opacity=60;" edge="1" parent="1" source="Z1hWmm2dF4A6RRwR6TOS-3" target="Z1hWmm2dF4A6RRwR6TOS-10">
          <mxGeometry relative="1" as="geometry">
            <mxPoint x="600" y="190.21739130434787" as="targetPoint" />
          </mxGeometry>
        </mxCell>
        <mxCell id="Z1hWmm2dF4A6RRwR6TOS-3" value="num1 ; num2" style="shape=parallelogram;perimeter=parallelogramPerimeter;whiteSpace=wrap;html=1;fixedSize=1;opacity=60;" vertex="1" parent="1">
          <mxGeometry x="365" y="160" width="120" height="60" as="geometry" />
        </mxCell>
        <mxCell id="Z1hWmm2dF4A6RRwR6TOS-7" style="edgeStyle=orthogonalEdgeStyle;rounded=0;orthogonalLoop=1;jettySize=auto;html=1;exitX=0.5;exitY=1;exitDx=0;exitDy=0;opacity=60;" edge="1" parent="1" source="Z1hWmm2dF4A6RRwR6TOS-6">
          <mxGeometry relative="1" as="geometry">
            <mxPoint x="425" y="430" as="targetPoint" />
          </mxGeometry>
        </mxCell>
        <mxCell id="Z1hWmm2dF4A6RRwR6TOS-13" style="edgeStyle=orthogonalEdgeStyle;rounded=0;orthogonalLoop=1;jettySize=auto;html=1;exitX=1;exitY=0.5;exitDx=0;exitDy=0;entryX=0.5;entryY=1;entryDx=0;entryDy=0;opacity=60;" edge="1" parent="1" source="Z1hWmm2dF4A6RRwR6TOS-6" target="Z1hWmm2dF4A6RRwR6TOS-10">
          <mxGeometry relative="1" as="geometry" />
        </mxCell>
        <mxCell id="Z1hWmm2dF4A6RRwR6TOS-15" style="edgeStyle=orthogonalEdgeStyle;rounded=0;orthogonalLoop=1;jettySize=auto;html=1;opacity=60;" edge="1" parent="1" source="Z1hWmm2dF4A6RRwR6TOS-6" target="Z1hWmm2dF4A6RRwR6TOS-16">
          <mxGeometry relative="1" as="geometry">
            <mxPoint x="280" y="629.9999999999998" as="targetPoint" />
          </mxGeometry>
        </mxCell>
        <mxCell id="Z1hWmm2dF4A6RRwR6TOS-6" value="max = 1, min = 1?&lt;br&gt;num1 &amp;gt; num2?" style="rounded=0;whiteSpace=wrap;html=1;opacity=60;" vertex="1" parent="1">
          <mxGeometry x="365" y="300" width="120" height="60" as="geometry" />
        </mxCell>
        <mxCell id="Z1hWmm2dF4A6RRwR6TOS-14" style="edgeStyle=orthogonalEdgeStyle;rounded=0;orthogonalLoop=1;jettySize=auto;html=1;exitX=1;exitY=0.5;exitDx=0;exitDy=0;entryX=1;entryY=1;entryDx=0;entryDy=0;opacity=60;" edge="1" parent="1" source="Z1hWmm2dF4A6RRwR6TOS-8" target="Z1hWmm2dF4A6RRwR6TOS-10">
          <mxGeometry relative="1" as="geometry" />
        </mxCell>
        <mxCell id="Z1hWmm2dF4A6RRwR6TOS-8" value="num1 == num2?" style="rhombus;whiteSpace=wrap;html=1;opacity=60;" vertex="1" parent="1">
          <mxGeometry x="365" y="430" width="120" height="120" as="geometry" />
        </mxCell>
        <mxCell id="Z1hWmm2dF4A6RRwR6TOS-11" style="edgeStyle=orthogonalEdgeStyle;rounded=0;orthogonalLoop=1;jettySize=auto;html=1;exitX=1;exitY=0.5;exitDx=0;exitDy=0;opacity=60;" edge="1" parent="1" source="Z1hWmm2dF4A6RRwR6TOS-10" target="Z1hWmm2dF4A6RRwR6TOS-12">
          <mxGeometry relative="1" as="geometry">
            <mxPoint x="780" y="189.82352941176475" as="targetPoint" />
          </mxGeometry>
        </mxCell>
        <mxCell id="Z1hWmm2dF4A6RRwR6TOS-10" value="Output: Both numbers are equal" style="ellipse;whiteSpace=wrap;html=1;opacity=60;" vertex="1" parent="1">
          <mxGeometry x="540" y="150" width="160" height="80" as="geometry" />
        </mxCell>
        <mxCell id="Z1hWmm2dF4A6RRwR6TOS-12" value="End" style="ellipse;whiteSpace=wrap;html=1;opacity=60;" vertex="1" parent="1">
          <mxGeometry x="730" y="175.09" width="40" height="29.82" as="geometry" />
        </mxCell>
        <mxCell id="Z1hWmm2dF4A6RRwR6TOS-17" style="edgeStyle=orthogonalEdgeStyle;rounded=0;orthogonalLoop=1;jettySize=auto;html=1;exitX=0;exitY=1;exitDx=0;exitDy=0;opacity=60;" edge="1" parent="1" source="Z1hWmm2dF4A6RRwR6TOS-16">
          <mxGeometry relative="1" as="geometry">
            <mxPoint x="160" y="759.9999999999998" as="targetPoint" />
          </mxGeometry>
        </mxCell>
        <mxCell id="Z1hWmm2dF4A6RRwR6TOS-18" style="edgeStyle=orthogonalEdgeStyle;rounded=0;orthogonalLoop=1;jettySize=auto;html=1;exitX=1;exitY=1;exitDx=0;exitDy=0;opacity=60;" edge="1" parent="1" source="Z1hWmm2dF4A6RRwR6TOS-16">
          <mxGeometry relative="1" as="geometry">
            <mxPoint x="400" y="760" as="targetPoint" />
          </mxGeometry>
        </mxCell>
        <mxCell id="Z1hWmm2dF4A6RRwR6TOS-16" value="&quot;num1 &amp;gt; num2?" style="rhombus;whiteSpace=wrap;html=1;opacity=60;" vertex="1" parent="1">
          <mxGeometry x="210" y="590" width="140" height="140" as="geometry" />
        </mxCell>
        <mxCell id="Z1hWmm2dF4A6RRwR6TOS-23" style="edgeStyle=orthogonalEdgeStyle;rounded=0;orthogonalLoop=1;jettySize=auto;html=1;exitX=1;exitY=1;exitDx=0;exitDy=0;" edge="1" parent="1" source="Z1hWmm2dF4A6RRwR6TOS-19">
          <mxGeometry relative="1" as="geometry">
            <mxPoint x="280" y="920" as="targetPoint" />
          </mxGeometry>
        </mxCell>
        <mxCell id="Z1hWmm2dF4A6RRwR6TOS-19" value="max = num1, min = num2" style="rounded=0;whiteSpace=wrap;html=1;opacity=60;" vertex="1" parent="1">
          <mxGeometry x="90" y="760" width="150" height="80" as="geometry" />
        </mxCell>
        <mxCell id="Z1hWmm2dF4A6RRwR6TOS-24" style="edgeStyle=orthogonalEdgeStyle;rounded=0;orthogonalLoop=1;jettySize=auto;html=1;exitX=0.5;exitY=1;exitDx=0;exitDy=0;" edge="1" parent="1" source="Z1hWmm2dF4A6RRwR6TOS-20">
          <mxGeometry relative="1" as="geometry">
            <mxPoint x="280" y="920" as="targetPoint" />
            <Array as="points">
              <mxPoint x="400" y="875" />
              <mxPoint x="281" y="875" />
              <mxPoint x="281" y="910" />
            </Array>
          </mxGeometry>
        </mxCell>
        <mxCell id="Z1hWmm2dF4A6RRwR6TOS-20" value="max = num2, min = num1" style="rounded=0;whiteSpace=wrap;html=1;opacity=60;" vertex="1" parent="1">
          <mxGeometry x="320" y="760" width="160" height="80" as="geometry" />
        </mxCell>
        <mxCell id="Z1hWmm2dF4A6RRwR6TOS-27" style="edgeStyle=orthogonalEdgeStyle;rounded=0;orthogonalLoop=1;jettySize=auto;html=1;exitX=1;exitY=0.5;exitDx=0;exitDy=0;entryX=0.5;entryY=1;entryDx=0;entryDy=0;" edge="1" parent="1" source="Z1hWmm2dF4A6RRwR6TOS-26" target="Z1hWmm2dF4A6RRwR6TOS-28">
          <mxGeometry relative="1" as="geometry">
            <mxPoint x="560" y="880" as="targetPoint" />
          </mxGeometry>
        </mxCell>
        <mxCell id="Z1hWmm2dF4A6RRwR6TOS-31" style="edgeStyle=orthogonalEdgeStyle;rounded=0;orthogonalLoop=1;jettySize=auto;html=1;exitX=1;exitY=1;exitDx=0;exitDy=0;entryX=0;entryY=1;entryDx=0;entryDy=0;" edge="1" parent="1" source="Z1hWmm2dF4A6RRwR6TOS-26" target="Z1hWmm2dF4A6RRwR6TOS-32">
          <mxGeometry relative="1" as="geometry">
            <mxPoint x="560" y="720" as="targetPoint" />
          </mxGeometry>
        </mxCell>
        <mxCell id="Z1hWmm2dF4A6RRwR6TOS-26" value="max % min == 0?" style="rhombus;whiteSpace=wrap;html=1;" vertex="1" parent="1">
          <mxGeometry x="225" y="920" width="110" height="100" as="geometry" />
        </mxCell>
        <mxCell id="Z1hWmm2dF4A6RRwR6TOS-30" style="edgeStyle=orthogonalEdgeStyle;rounded=0;orthogonalLoop=1;jettySize=auto;html=1;exitX=1;exitY=0.5;exitDx=0;exitDy=0;entryX=0.5;entryY=1;entryDx=0;entryDy=0;" edge="1" parent="1" source="Z1hWmm2dF4A6RRwR6TOS-28" target="Z1hWmm2dF4A6RRwR6TOS-12">
          <mxGeometry relative="1" as="geometry" />
        </mxCell>
        <mxCell id="Z1hWmm2dF4A6RRwR6TOS-28" value="Output: max" style="ellipse;whiteSpace=wrap;html=1;" vertex="1" parent="1">
          <mxGeometry x="430" y="550" width="120" height="80" as="geometry" />
        </mxCell>
        <mxCell id="Z1hWmm2dF4A6RRwR6TOS-33" style="edgeStyle=orthogonalEdgeStyle;rounded=0;orthogonalLoop=1;jettySize=auto;html=1;exitX=0.5;exitY=1;exitDx=0;exitDy=0;" edge="1" parent="1" source="Z1hWmm2dF4A6RRwR6TOS-32" target="Z1hWmm2dF4A6RRwR6TOS-34">
          <mxGeometry relative="1" as="geometry">
            <mxPoint x="619.7741935483871" y="800" as="targetPoint" />
          </mxGeometry>
        </mxCell>
        <mxCell id="Z1hWmm2dF4A6RRwR6TOS-32" value="For Loop: i = 2 to num1 * num2" style="rounded=0;whiteSpace=wrap;html=1;" vertex="1" parent="1">
          <mxGeometry x="550" y="640" width="120" height="80" as="geometry" />
        </mxCell>
        <mxCell id="Z1hWmm2dF4A6RRwR6TOS-36" style="edgeStyle=orthogonalEdgeStyle;rounded=0;orthogonalLoop=1;jettySize=auto;html=1;" edge="1" parent="1" source="Z1hWmm2dF4A6RRwR6TOS-34" target="Z1hWmm2dF4A6RRwR6TOS-37">
          <mxGeometry relative="1" as="geometry">
            <mxPoint x="720" y="815" as="targetPoint" />
          </mxGeometry>
        </mxCell>
        <mxCell id="Z1hWmm2dF4A6RRwR6TOS-34" value="(max * i) % min == 0?" style="rhombus;whiteSpace=wrap;html=1;" vertex="1" parent="1">
          <mxGeometry x="560" y="767.5" width="140" height="110" as="geometry" />
        </mxCell>
        <mxCell id="Z1hWmm2dF4A6RRwR6TOS-38" style="edgeStyle=orthogonalEdgeStyle;rounded=0;orthogonalLoop=1;jettySize=auto;html=1;" edge="1" parent="1" source="Z1hWmm2dF4A6RRwR6TOS-37" target="Z1hWmm2dF4A6RRwR6TOS-39">
          <mxGeometry relative="1" as="geometry">
            <mxPoint x="735" y="750.0000000000001" as="targetPoint" />
          </mxGeometry>
        </mxCell>
        <mxCell id="Z1hWmm2dF4A6RRwR6TOS-37" value="Output: max * i" style="rounded=0;whiteSpace=wrap;html=1;" vertex="1" parent="1">
          <mxGeometry x="730" y="805" width="90" height="35" as="geometry" />
        </mxCell>
        <mxCell id="Z1hWmm2dF4A6RRwR6TOS-39" value="End" style="ellipse;whiteSpace=wrap;html=1;" vertex="1" parent="1">
          <mxGeometry x="740" y="710" width="70" height="40" as="geometry" />
        </mxCell>
      </root>
    </mxGraphModel>
  </diagram>
</mxfile>
